<?xml version="1.0" encoding="UTF-8" standalone="no"?>
<svg
   xmlns:dc="http://purl.org/dc/elements/1.1/"
   xmlns:cc="http://creativecommons.org/ns#"
   xmlns:rdf="http://www.w3.org/1999/02/22-rdf-syntax-ns#"
   xmlns:svg="http://www.w3.org/2000/svg"
   xmlns="http://www.w3.org/2000/svg"
   xmlns:sodipodi="http://sodipodi.sourceforge.net/DTD/sodipodi-0.dtd"
   xmlns:inkscape="http://www.inkscape.org/namespaces/inkscape"
   id="svg1203"
   version="1.1"
   viewBox="0 0 160 184"
   height="184mm"
   width="160mm"
   sodipodi:docname="gas_unprs.svg"
   inkscape:version="0.92.3 (2405546, 2018-03-11)">
  <sodipodi:namedview
     pagecolor="#ffffff"
     bordercolor="#666666"
     borderopacity="1"
     objecttolerance="10"
     gridtolerance="10"
     guidetolerance="10"
     inkscape:pageopacity="0"
     inkscape:pageshadow="2"
     inkscape:window-width="1858"
     inkscape:window-height="1058"
     id="namedview9"
     showgrid="false"
     inkscape:zoom="0.84096521"
     inkscape:cx="193.17063"
     inkscape:cy="390.47463"
     inkscape:window-x="54"
     inkscape:window-y="-8"
     inkscape:window-maximized="1"
     inkscape:current-layer="svg1203"
     fit-margin-top="0"
     fit-margin-left="0"
     fit-margin-right="0"
     fit-margin-bottom="0" />
  <defs
     id="defs1197" />
  <metadata
     id="metadata1200">
    <rdf:RDF>
      <cc:Work
         rdf:about="">
        <dc:format>image/svg+xml</dc:format>
        <dc:type
           rdf:resource="http://purl.org/dc/dcmitype/StillImage" />
        <dc:title></dc:title>
      </cc:Work>
    </rdf:RDF>
  </metadata>
  <g
     id="layer2"
     transform="translate(-25.271017,-59.213532)" />
  <g
     id="layer1"
     style="fill:#1e1e1e;fill-opacity:1"
     transform="translate(-25.271017,-59.213532)">
    <g
       style="fill:#1e1e1e;fill-opacity:1"
       transform="matrix(4.5456546,0,0,-4.5456546,70.315973,243.21353)"
       id="g4261">
      <path
         id="path4263"
         style="fill:#1e1e1e;fill-opacity:1;fill-rule:nonzero;stroke:none"
         d="m 0,0 c -2.701,5.621 -1.264,8.844 0.812,11.879 2.276,3.324 2.862,6.615 2.862,6.615 0,0 1.787,-2.324 1.072,-5.959 3.158,3.516 3.754,9.117 3.277,11.262 7.139,-4.99 10.19,-15.791 6.079,-23.797 21.869,12.373 5.441,30.889 2.58,32.975 0.953,-2.086 1.134,-5.618 -0.793,-7.332 C 12.629,38.008 4.566,40.541 4.566,40.541 5.521,34.166 1.111,27.193 -3.141,21.984 -3.291,24.527 -3.449,26.281 -4.787,28.715 -5.086,24.094 -8.615,20.328 -9.572,15.703 -10.865,9.434 -8.602,4.846 0,0"
         inkscape:connector-curvature="0" />
    </g>
  </g>
</svg>
