<?xml version="1.0" encoding="UTF-8" standalone="no"?>
<!-- Generator: Adobe Illustrator 19.0.0, SVG Export Plug-In . SVG Version: 6.00 Build 0)  -->

<svg
   xmlns:dc="http://purl.org/dc/elements/1.1/"
   xmlns:cc="http://creativecommons.org/ns#"
   xmlns:rdf="http://www.w3.org/1999/02/22-rdf-syntax-ns#"
   xmlns:svg="http://www.w3.org/2000/svg"
   xmlns="http://www.w3.org/2000/svg"
   xmlns:sodipodi="http://sodipodi.sourceforge.net/DTD/sodipodi-0.dtd"
   xmlns:inkscape="http://www.inkscape.org/namespaces/inkscape"
   version="1.1"
   id="Capa_1"
   x="0px"
   y="0px"
   viewBox="0 0 512 512"
   style="enable-background:new 0 0 512 512;"
   xml:space="preserve"
   sodipodi:docname="label.svg"
   inkscape:export-filename="D:\g12.png"
   inkscape:export-xdpi="8.4375"
   inkscape:export-ydpi="8.4375"
   inkscape:version="0.92.3 (2405546, 2018-03-11)"><metadata
   id="metadata49"><rdf:RDF><cc:Work
       rdf:about=""><dc:format>image/svg+xml</dc:format><dc:type
         rdf:resource="http://purl.org/dc/dcmitype/StillImage" /></cc:Work></rdf:RDF></metadata><defs
   id="defs47" /><sodipodi:namedview
   pagecolor="#ffffff"
   bordercolor="#666666"
   borderopacity="1"
   objecttolerance="10"
   gridtolerance="10"
   guidetolerance="10"
   inkscape:pageopacity="0"
   inkscape:pageshadow="2"
   inkscape:window-width="1216"
   inkscape:window-height="787"
   id="namedview45"
   showgrid="false"
   inkscape:zoom="0.4609375"
   inkscape:cx="256"
   inkscape:cy="256"
   inkscape:window-x="291"
   inkscape:window-y="215"
   inkscape:window-maximized="0"
   inkscape:current-layer="Capa_1" />
<g
   id="g6"
   style="fill:#1e1e1e;fill-opacity:1">
	<g
   id="g4"
   style="fill:#1e1e1e;fill-opacity:1">
		<rect
   x="241"
   width="30"
   height="80.94"
   id="rect2"
   style="fill:#1e1e1e;fill-opacity:1" />
	</g>
</g>
<g
   id="g12"
   style="fill:#1e1e1e;fill-opacity:1"
   inkscape:export-filename="D:\g12.png"
   inkscape:export-xdpi="6.2359643"
   inkscape:export-ydpi="6.2359643">
	<g
   id="g10"
   style="fill:#1e1e1e;fill-opacity:1">
		<path
   d="M330.16,80.952H271V141h30.036v30h-90.072v-30H241V80.952h-59.16l-83.788,89.12V512h315.896V170.072L330.16,80.952z     M248.555,326.512h14.889c30.445,0,55.214,24.769,55.214,55.214c0,27.881-20.777,50.987-47.658,54.684v30.566h-30V436.41    c-26.882-3.697-47.658-26.803-47.658-54.684h30c0,13.903,11.311,25.214,25.214,25.214h14.889    c13.903,0,25.214-11.311,25.214-25.214c0-13.903-11.311-25.214-25.214-25.214h-14.889c-30.445,0-55.214-24.769-55.214-55.214    c0-27.881,20.777-50.987,47.658-54.684v-30.566h30v30.566c26.882,3.697,47.658,26.803,47.658,54.684h-30    c0-13.903-11.311-25.214-25.214-25.214h-14.889c-13.903,0-25.214,11.311-25.214,25.214    C223.341,315.201,234.652,326.512,248.555,326.512z"
   id="path8"
   style="fill:#1e1e1e;fill-opacity:1" />
	</g>
</g>
<g
   id="g14">
</g>
<g
   id="g16">
</g>
<g
   id="g18">
</g>
<g
   id="g20">
</g>
<g
   id="g22">
</g>
<g
   id="g24">
</g>
<g
   id="g26">
</g>
<g
   id="g28">
</g>
<g
   id="g30">
</g>
<g
   id="g32">
</g>
<g
   id="g34">
</g>
<g
   id="g36">
</g>
<g
   id="g38">
</g>
<g
   id="g40">
</g>
<g
   id="g42">
</g>
</svg>