<?xml version="1.0" encoding="UTF-8" standalone="no"?>
<svg
   xmlns:dc="http://purl.org/dc/elements/1.1/"
   xmlns:cc="http://creativecommons.org/ns#"
   xmlns:rdf="http://www.w3.org/1999/02/22-rdf-syntax-ns#"
   xmlns:svg="http://www.w3.org/2000/svg"
   xmlns="http://www.w3.org/2000/svg"
   xmlns:sodipodi="http://sodipodi.sourceforge.net/DTD/sodipodi-0.dtd"
   xmlns:inkscape="http://www.inkscape.org/namespaces/inkscape"
   id="svg830"
   version="1.1"
   viewBox="0 0 166 237"
   height="237mm"
   width="166mm"
   sodipodi:docname="water_prs.svg"
   inkscape:version="0.92.3 (2405546, 2018-03-11)">
  <sodipodi:namedview
     pagecolor="#ffffff"
     bordercolor="#666666"
     borderopacity="1"
     objecttolerance="10"
     gridtolerance="10"
     guidetolerance="10"
     inkscape:pageopacity="0"
     inkscape:pageshadow="2"
     inkscape:window-width="1121"
     inkscape:window-height="707"
     id="namedview8"
     showgrid="false"
     fit-margin-top="0"
     fit-margin-left="0"
     fit-margin-right="0"
     fit-margin-bottom="0"
     inkscape:zoom="0.2102413"
     inkscape:cx="308.32525"
     inkscape:cy="444.36091"
     inkscape:window-x="508"
     inkscape:window-y="163"
     inkscape:window-maximized="0"
     inkscape:current-layer="layer1" />
  <defs
     id="defs824" />
  <metadata
     id="metadata827">
    <rdf:RDF>
      <cc:Work
         rdf:about="">
        <dc:format>image/svg+xml</dc:format>
        <dc:type
           rdf:resource="http://purl.org/dc/dcmitype/StillImage" />
        <dc:title></dc:title>
      </cc:Work>
    </rdf:RDF>
  </metadata>
  <g
     id="layer1"
     transform="translate(-23.422277,-29.328318)">
    <g
       id="g4"
       style="fill:#f6f6f6;fill-opacity:1;stroke:none;stroke-opacity:1"
       transform="matrix(0.61756948,0,0,0.61756948,-11.989157,29.328318)">
      <path
         d="M 273.217,106.899 C 246.036,62.035 215.804,23.206 200.201,4.053 198.113,1.488 194.98,-0.001 191.673,0 c -3.308,0 -6.44,1.489 -8.529,4.054 -15.602,19.159 -45.834,58.001 -73.015,102.869 -35.028,57.823 -52.789,105.63 -52.789,142.09 0,74.071 60.261,134.332 134.332,134.332 74.071,0 134.332,-60.261 134.332,-134.332 10e-4,-36.484 -17.758,-84.298 -52.787,-142.114 z m -63.111,226.969 c -7.844,2.006 -15.986,3.022 -24.205,3.022 -50.186,0 -91.015,-37.929 -91.015,-84.55 0,-11.255 2.97,-24.405 8.825,-39.083 0.989,-2.48 3.807,-3.895 6.585,-3.295 2.776,0.598 4.64,3.018 4.354,5.65 -0.342,3.148 -0.516,6.223 -0.516,9.136 0,50.735 40.881,93.221 95.093,98.821 2.698,0.279 4.803,2.297 5.018,4.812 0.216,2.515 -1.522,4.817 -4.139,5.487 z"
         id="path2"
         style="fill:#f6f6f6;fill-opacity:1;stroke:none;stroke-opacity:1"
         inkscape:connector-curvature="0" />
    </g>
  </g>
</svg>
